<?xml version="1.0" encoding="UTF-8"?> <svg xmlns="http://www.w3.org/2000/svg" width="464" height="101.8" viewBox="0 0 464 101.8"><defs><style>.a{fill:#8da759;}.b{fill:#fff;}.c{fill:#8fb5c3;}.d{fill:#b5be0f;}.e{fill:#fcc000;}</style></defs><title>Carbon Bank Reverse</title><path class="a" d="M366.6,74.05v9H369c4.6,0,7-1.2,7-4.1,0-3.1-2.5-4.9-7.6-4.9Zm0-13.3v7.3h1.6c3.4,0,5.1-1.4,5.1-3.8,0-2.2-1.6-3.5-4.9-3.5Zm-7.2,28.6V54.45h6.9c4,0,7.2.4,9.6,1.7a8.3489,8.3489,0,0,1,4.6,7.3c0,2.8-1.4,4.9-4,6.7,4.4,1.9,6.7,4.8,6.7,9a9.2491,9.2491,0,0,1-3.3,7.2c-2.5,2.3-5.3,3-9.2,3Z" transform="translate(-25.8 -20.35)"></path><path class="a" d="M403.3,63.65l-5,11.9h10.1Zm-3.7-9.2h7.3l14.7,34.9h-7.5l-3-7.2H395.6l-3.1,7.2H385Z" transform="translate(-25.8 -20.35)"></path><polygon class="a" points="399.2 34.1 406.2 34.1 422.5 57 422.5 34.1 429.7 34.1 429.7 69 422.7 69 406.5 46.1 406.5 69 399.2 69 399.2 34.1"></polygon><polygon class="a" points="453.9 34.1 443.6 46.1 443.6 34.1 436.4 34.1 436.4 69 443.6 69 443.6 53.5 455.4 69 464 69 449.3 49.6 462.7 34.1 453.9 34.1"></polygon><path class="b" d="M304.6,39.85c-.8-1-1.5-1.7-2.7-1.7a1.776,1.776,0,0,0-2,1.7,2.8858,2.8858,0,0,0,1.3,2.1c2.8,1.9,4.8,3.2,4.8,5.3a3.8467,3.8467,0,0,1-4.1,3.6,4.73,4.73,0,0,1-4.4-2.9l1.2-.7c.9,1.5,1.9,2.2,3.1,2.2a2.4989,2.4989,0,0,0,2.7-2.3c0-1.5-1.5-2.3-4.8-4.8a3.3876,3.3876,0,0,1-1.2-2.6,3.3262,3.3262,0,0,1,3.6-3.2,4.5906,4.5906,0,0,1,3.8,2.2Zm12.1-2.7h1.5v8.8c0,3.2-1.9,5-4.9,5s-4.9-1.9-4.9-5v-8.8h1.5v8.6a3.8139,3.8139,0,0,0,.8,2.9,3.3149,3.3149,0,0,0,2.6,1.1,3.0225,3.0225,0,0,0,2.6-1.1,3.8138,3.8138,0,0,0,.8-2.9Zm10,2.7c-.8-1-1.5-1.7-2.7-1.7a1.776,1.776,0,0,0-2,1.7,2.8858,2.8858,0,0,0,1.3,2.1c2.8,1.9,4.8,3.2,4.8,5.3a3.8467,3.8467,0,0,1-4.1,3.6,4.73,4.73,0,0,1-4.4-2.9l1.2-.7c.9,1.5,1.9,2.2,3.1,2.2a2.4989,2.4989,0,0,0,2.7-2.3c0-1.5-1.5-2.3-4.8-4.8a3.3876,3.3876,0,0,1-1.2-2.6,3.3262,3.3262,0,0,1,3.6-3.2,4.5906,4.5906,0,0,1,3.8,2.2Zm2.3-1.4v-1.3h8.1v1.3h-3.3v12.1h-1.5V38.45Zm13.6,1.5-2.5,4.9h5Zm.2-2.8,6.8,13.5H348l-2.3-4.4h-6.3l-2.3,4.4h-1.6l6.9-13.5Zm8.1,0h1.5v13.5h-1.5Zm4.1,13.4V37.15h.3l9.8,10.3V37.15h1.4v13.4h-.3l-9.7-10.1v10.1Zm20.2-10.6-2.5,4.9h5Zm.2-2.8,6.8,13.5h-1.6l-2.3-4.4H372l-2.3,4.4h-1.6l6.9-13.5Zm9.8,12.1H387c.6,0,1.3-.1,1.8-.1a2.661,2.661,0,0,0,2.3-2.4,2.5062,2.5062,0,0,0-1.4-2.2,8.416,8.416,0,0,0-3.4-.5h-1l-.1,5.2Zm0-6.5h1a4.8233,4.8233,0,0,0,2.6-.5,2.058,2.058,0,0,0,1-1.9c0-1.2-1-2-2.7-2h-1.9Zm-1.4,7.8V37.15h3.1c3.1,0,4.5,1.4,4.5,3.3a2.9608,2.9608,0,0,1-1.9,2.8c2,.6,3.1,1.8,3.1,3.5,0,2-1.7,3.9-4.8,3.9l-4-.1Zm10.9-13.4h1.5v12.1h5.6v1.3h-7.1Zm8.7,0h8.4v1.3h-6.9v4.2h6.9v1.3h-6.9v5.3h6.9v1.3h-8.4Zm15.1,0h7.4v1.3H420v4.2h5.9v1.3H420v6.6h-1.5Zm17.5,0h1.5v8.8c0,3.2-1.9,5-4.9,5s-4.9-1.9-4.9-5v-8.8h1.5v8.6a3.8139,3.8139,0,0,0,.8,2.9,3.3149,3.3149,0,0,0,2.6,1.1,3.0225,3.0225,0,0,0,2.6-1.1,3.8138,3.8138,0,0,0,.8-2.9Zm2.8,1.3v-1.3h8.1v1.3h-3.3v12.1h-1.4V38.45Zm17.8-1.3h1.5v8.8c0,3.2-1.9,5-4.9,5s-4.9-1.9-4.9-5v-8.8h1.5v8.6a3.8139,3.8139,0,0,0,.8,2.9,3.3149,3.3149,0,0,0,2.6,1.1,3.0225,3.0225,0,0,0,2.6-1.1,3.8138,3.8138,0,0,0,.8-2.9Zm5.8,1.3v4.6h2.4a4.8285,4.8285,0,0,0,2.9-.6,2.2271,2.2271,0,0,0,.9-1.7c0-1.3-1-2.3-3.2-2.3Zm-1.4-1.3h3.4a14.0381,14.0381,0,0,1,3.4.3,3.4488,3.4488,0,0,1,2,4.9c-.8,1.4-2.2,2-4.7,2l5.3,6.3h-1.8l-5.3-6.3h-.8v6.3H461Zm11.6,0h8.3v1.3H474v4.2h6.9v1.3H474v5.3h6.9v1.3h-8.3Zm15.8,2.7c-.8-1-1.5-1.7-2.7-1.7a1.776,1.776,0,0,0-2,1.7,2.8858,2.8858,0,0,0,1.3,2.1c2.8,1.9,4.8,3.2,4.8,5.3a3.8467,3.8467,0,0,1-4.1,3.6,4.73,4.73,0,0,1-4.4-2.9l1.2-.7c.9,1.5,1.9,2.2,3.1,2.2a2.4989,2.4989,0,0,0,2.7-2.3c0-1.5-1.5-2.3-4.8-4.8a3.3876,3.3876,0,0,1-1.2-2.6,3.3262,3.3262,0,0,1,3.6-3.2,4.5906,4.5906,0,0,1,3.8,2.2Z" transform="translate(-25.8 -20.35)"></path><path class="b" d="M181.4,83.45c-5,4.5-9.4,6.7-16.5,6.7-11.9,0-20.1-7.6-20.1-18.4,0-11,9.3-18.3,20.2-18.3a22.7306,22.7306,0,0,1,16.6,7l-5.1,4.5a15.8764,15.8764,0,0,0-11.6-5.1c-7.1,0-13,5.1-13,11.9,0,7.2,5.6,12,13.1,12,4.7,0,7.9-1.7,11.5-5.1Z" transform="translate(-25.8 -20.35)"></path><path class="b" d="M201.1,63.65l-5,11.9h10Zm-3.7-9.2h7.3l14.7,34.9h-7.5l-3-7.2H193.4l-3.1,7.2h-7.5Z" transform="translate(-25.8 -20.35)"></path><path class="b" d="M230.6,68.05h3.3c3.3,0,5-1.2,5-3.6,0-2.3-1.7-3.5-5.2-3.5h-3.1Zm-7.3-13.6h8.8c4.8,0,8.2.5,10.7,2.8a9.6973,9.6973,0,0,1,3.1,7.3c0,4.6-2.5,7.7-7.3,9.3l9,15.5h-7.9l-8.5-14.8h-.7v14.8h-7.3l.1-34.9Z" transform="translate(-25.8 -20.35)"></path><path class="b" d="M258.7,74.05v9h2.4c4.6,0,7-1.2,7-4.1,0-3.1-2.5-4.9-7.6-4.9Zm0-13.3v7.3h1.6c3.4,0,5.1-1.4,5.1-3.8,0-2.2-1.6-3.5-4.9-3.5Zm-7.3,28.6V54.45h6.9c4,0,7.2.4,9.6,1.7a8.3489,8.3489,0,0,1,4.6,7.3c0,2.8-1.4,4.9-4,6.7,4.4,1.9,6.7,4.8,6.7,9a9.2491,9.2491,0,0,1-3.3,7.2c-2.5,2.3-5.3,3-9.2,3Z" transform="translate(-25.8 -20.35)"></path><path class="b" d="M285.5,71.95c0,7.1,5.8,11.8,12.5,11.8,6.9,0,12.4-5.2,12.4-11.8a12.1515,12.1515,0,0,0-12.5-12c-6.8,0-12.4,4.8-12.4,12m32.2,0c0,10.2-8.7,18.2-19.6,18.2-11.3,0-19.9-8.2-19.9-18.3,0-10.3,9-18.3,19.8-18.3,10.4,0,19.7,7.8,19.7,18.4" transform="translate(-25.8 -20.35)"></path><polygon class="b" points="296.5 34.1 303.5 34.1 319.8 57 319.8 34.1 327 34.1 327 69 320 69 303.8 46.1 303.8 69 296.5 69 296.5 34.1"></polygon><path class="a" d="M366.6,74.05v9H369c4.6,0,7-1.2,7-4.1,0-3.1-2.5-4.9-7.6-4.9Zm0-13.3v7.3h1.6c3.4,0,5.1-1.4,5.1-3.8,0-2.2-1.6-3.5-4.9-3.5Zm-7.2,28.6V54.45h6.9c4,0,7.2.4,9.6,1.7a8.3489,8.3489,0,0,1,4.6,7.3c0,2.8-1.4,4.9-4,6.7,4.4,1.9,6.7,4.8,6.7,9a9.2491,9.2491,0,0,1-3.3,7.2c-2.5,2.3-5.3,3-9.2,3Z" transform="translate(-25.8 -20.35)"></path><path class="a" d="M403.3,63.65l-5,11.9h10.1Zm-3.7-9.2h7.3l14.7,34.9h-7.5l-3-7.2H395.6l-3.1,7.2H385Z" transform="translate(-25.8 -20.35)"></path><polygon class="a" points="399.2 34.1 406.2 34.1 422.5 57 422.5 34.1 429.7 34.1 429.7 69 422.7 69 406.5 46.1 406.5 69 399.2 69 399.2 34.1"></polygon><polygon class="a" points="453.9 34.1 443.6 46.1 443.6 34.1 436.4 34.1 436.4 69 443.6 69 443.6 53.5 455.4 69 464 69 449.3 49.6 462.7 34.1 453.9 34.1"></polygon><path class="c" d="M84.7655,59.5071A56.8747,56.8747,0,0,1,95.0677,44.4256a63.8147,63.8147,0,0,1,11.5767-8.4966c-7.6-5.8-19.4943-11.0456-29.7943-11.0456-16,0-31.7656,11.0906-39.6656,23.7906,4.1-1,10.1443-.7435,14.4443-.7435C63.7287,48.03,75.5655,51.8072,84.7655,59.5071Z" transform="translate(-25.8 -20.35)"></path><path class="a" d="M115.05,47.2356a57.7344,57.7344,0,0,0-6.2-8.0142,45.9728,45.9728,0,0,0-21,23.26c1.5876,1.6934,3.0693,4.8641,4.4453,6.7692a58.2828,58.2828,0,0,1,9.1022-12.0657A56.4,56.4,0,0,1,115.05,47.2356Z" transform="translate(-25.8 -20.35)"></path><path class="a" d="M108.6623,73.42c4.1-3,9.2132-6.765,13.9132-8.4649a57.7648,57.7648,0,0,0-4.5669-14.7946,52.498,52.498,0,0,0-12.8511,8.8153,48.7,48.7,0,0,0-9.4525,13.3822A93.68,93.68,0,0,1,99.316,81.05C101.916,78.15,105.4623,75.72,108.6623,73.42Z" transform="translate(-25.8 -20.35)"></path><path class="a" d="M111.6218,75.6045a46.412,46.412,0,0,0-10.8342,11.0466,56.9477,56.9477,0,0,1,.956,10.5155,50.81,50.81,0,0,1-1.6995,13.3834A43.8121,43.8121,0,0,0,122.456,70.0812c-.0092-.2122,0-.3187,0-.5311A47.6174,47.6174,0,0,0,111.6218,75.6045Z" transform="translate(-25.8 -20.35)"></path><path class="d" d="M96.3821,87.4795c-.4181-1.5679-.8362-3.0312-1.3588-4.4945-1.0452-2.9267-.8306-5.9956-2.3984-8.6087A34.179,34.179,0,0,0,89.12,69.25c-1.5679-1.8814-5.1266-7.1131-6.9035-8.681-8.3619-7.63-19.2082-10.4084-31.4375-10.4084-6.0624,0-11.7806,3.1392-17.1114,5.23a46.998,46.998,0,0,0-2.8222,10.975,52.6729,52.6729,0,0,1,31.88,10.8705c1.8814,1.4633,3.6583,3.0312,5.4353,4.7036l.6271.6271c2.5086,2.5086,3.1569,5.1565,5.0384,8.0832A68.2439,68.2439,0,0,1,76.8,96.8923c3.3448,7.0031,3.6127,14.3142,3.7172,22.258,1.5679-.209,6.4578-.5226,8.0256-.8362a42.3943,42.3943,0,0,0,6.1669-1.986h0a52.7976,52.7976,0,0,0,1.8814-5.7488,46.2074,46.2074,0,0,0,1.4633-11.4977V98.559A74.351,74.351,0,0,0,96.3821,87.4795Z" transform="translate(-25.8 -20.35)"></path><path class="e" d="M31.3,70.45A48.8373,48.8373,0,0,0,36.078,91.7837a58.616,58.616,0,0,1,11.4444-9.2222,57.8175,57.8175,0,0,1,9.8889-4.7778A49.93,49.93,0,0,0,31.3,70.45Z" transform="translate(-25.8 -20.35)"></path><path class="e" d="M61.9667,81.5614a49.7044,49.7044,0,0,0-13,5.6667,50.786,50.786,0,0,0-11.4444,9.6667,55.95,55.95,0,0,0,8.8889,10.2222A55.36,55.36,0,0,1,59.6333,96.0058,58.6243,58.6243,0,0,1,70.3,90.8947,47.7248,47.7248,0,0,0,61.9667,81.5614Z" transform="translate(-25.8 -20.35)"></path><path class="e" d="M62.0777,99.5612a49.7417,49.7417,0,0,0-11.3333,9.5556A50.01,50.01,0,0,0,78.3,117.45a48.959,48.959,0,0,0-5.5556-22.7778A45.9971,45.9971,0,0,0,62.0777,99.5612Z" transform="translate(-25.8 -20.35)"></path><path class="b" d="M100.7,109.55a53.0524,53.0524,0,0,0,1.6-12.6,55.2377,55.2377,0,0,0-.9-9.9,41.9256,41.9256,0,0,1,10.2-10.4,43.4232,43.4232,0,0,1,10.3-5.7v.5a45.3143,45.3143,0,0,1-21.2,38.1m-4.2-36.3a44.7256,44.7256,0,0,1,20.8-21.5,45.4441,45.4441,0,0,1,4.1,13.1,50.208,50.208,0,0,0-13.3,7.1,54.7115,54.7115,0,0,0-8.6,8,58.9039,58.9039,0,0,0-3-6.7M95,107.85a50.5106,50.5106,0,0,1-1.8,5.5h0a40.5593,40.5593,0,0,1-5.9,1.9,35.3989,35.3989,0,0,1-4.5.8,51.0881,51.0881,0,0,0-5-21.6,42.8552,42.8552,0,0,0-3.1-5.5,47.5013,47.5013,0,0,0-6.3-7.9l-.6-.6a55.93,55.93,0,0,0-5.2-4.5,49.356,49.356,0,0,0-30.4-10.5,46.2784,46.2784,0,0,1,2.7-10.5,45.034,45.034,0,0,1,46.7,8.6,44.21,44.21,0,0,1,4.7,5,54.7615,54.7615,0,0,1,3.5,4.9,44.227,44.227,0,0,1,3.8,7.9,35.17,35.17,0,0,1,1.3,4.3,45.7979,45.7979,0,0,1,1.4,10.5v.5a40.4924,40.4924,0,0,1-1.3,11.2m-43,1.1a45.2945,45.2945,0,0,1,19.9-13.1,44.3666,44.3666,0,0,1,5,20.5,44.22,44.22,0,0,1-24.9-7.4m-4.8-3.7a43.7333,43.7333,0,0,1-8-9.2,46.1034,46.1034,0,0,1,10.3-8.7,44.7337,44.7337,0,0,1,11.7-5.1,45.7822,45.7822,0,0,1,7.5,8.3,52.7617,52.7617,0,0,0-9.6,4.6,58.3423,58.3423,0,0,0-11.9,10.1M36.1,90.65a43.9536,43.9536,0,0,1-4.3-19.2,44.9369,44.9369,0,0,1,23.5,6.6,52.0345,52.0345,0,0,0-8.9,4.3,48.7192,48.7192,0,0,0-10.3,8.3m40.7-64.3a45.06,45.06,0,0,1,27.4,9.3A51.6252,51.6252,0,0,0,94,43.55a49.4875,49.4875,0,0,0-10,14.2,50.2419,50.2419,0,0,0-32.6-11.8,47.8355,47.8355,0,0,0-12.6,1.6,44.7835,44.7835,0,0,1,38-21.2m37.5,20.1a53.2878,53.2878,0,0,0-12.9,9.4,50.2374,50.2374,0,0,0-8.6,11.4c-1.3-1.8-2.7-3.5-4.2-5.2a45.2476,45.2476,0,0,1,20.3-22.2,48.6169,48.6169,0,0,1,5.4,6.6m13.4,22.6q-.15-3-.6-6a51.458,51.458,0,0,0-4.3-13.8,55.4063,55.4063,0,0,0-3-5.3,47.1845,47.1845,0,0,0-5.2-6.8c-.6-.7-1.2-1.3-1.8-1.9a35.8354,35.8354,0,0,0-2.9-2.6,50.8311,50.8311,0,0,0-82.5,25.9,54.003,54.003,0,0,0-1.3,7,52.5289,52.5289,0,0,0-.3,5.6v.4a48.8178,48.8178,0,0,0,1.1,10.1,53.116,53.116,0,0,0,5,13.8,46.2318,46.2318,0,0,0,3.5,5.5,46.0909,46.0909,0,0,0,5.4,6.3,34.4617,34.4617,0,0,0,2.8,2.6,42.9079,42.9079,0,0,0,4.8,3.6,50.4367,50.4367,0,0,0,28.1,8.7h1.1a40.2783,40.2783,0,0,0,4.9-.3,46.7791,46.7791,0,0,0,5.4-.9,12.4357,12.4357,0,0,0,1.6-.4c.2-.1.4-.1.6-.2a54.3769,54.3769,0,0,0,6.8-2.3,10.375,10.375,0,0,1,1-.4c1.7-.8,3.3-1.6,4.9-2.5a51.6252,51.6252,0,0,0,10.2-7.9,50.6043,50.6043,0,0,0,14.9-36c-.1-.6-.1-1.4-.2-2.2" transform="translate(-25.8 -20.35)"></path></svg> 